<svg width="187.000000" height="14.000000" viewBox="0 0 187 14" fill="none" xmlns="http://www.w3.org/2000/svg" xmlns:xlink="http://www.w3.org/1999/xlink">
	<desc>
			Created with Pixso.
	</desc>
	<defs/>
	<path id="Vector" d="M93.5 13.3C93.4 13.31 93.3 13.28 93.21 13.21L93.19 13.18C91.19 11.1 89 9.22 86.63 7.57C82.95 10.16 79.63 11.46 76.75 11.46L76.67 11.46C73.86 11.46 72.55 9.29 72.51 7.31C72.49 5.32 73.73 3.13 76.55 3.03C79.44 2.91 82.83 4.14 86.63 6.66C89 4.9 91.21 2.93 93.22 0.77C93.26 0.74 93.3 0.71 93.35 0.69C93.39 0.67 93.44 0.66 93.5 0.66C93.55 0.66 93.6 0.67 93.64 0.69C93.69 0.71 93.73 0.74 93.77 0.77C95.78 2.93 97.98 4.9 100.36 6.66C104.15 4.15 107.54 2.92 110.44 3.03C113.25 3.13 114.5 5.32 114.47 7.31C114.44 9.3 113.13 11.44 110.32 11.46L110.23 11.46C107.35 11.46 104.02 10.15 100.35 7.57C97.99 9.22 95.8 11.1 93.8 13.18C93.72 13.26 93.62 13.3 93.5 13.3ZM87.29 7.11C89.52 8.69 91.6 10.48 93.51 12.43C95.41 10.48 97.5 8.7 99.73 7.11C97.5 5.44 95.41 3.59 93.51 1.58C91.59 3.59 89.5 5.45 87.26 7.11L87.29 7.11ZM101.02 7.11C104.47 9.51 107.58 10.73 110.25 10.73L110.32 10.73C112.64 10.73 113.72 8.94 113.75 7.29C113.77 5.65 112.76 3.84 110.43 3.76C107.73 3.68 104.55 4.81 100.99 7.13L101.02 7.11ZM76.91 3.76L76.55 3.76C74.23 3.84 73.21 5.65 73.23 7.29C73.26 8.93 74.33 10.7 76.65 10.72L76.73 10.72C79.39 10.72 82.5 9.51 85.96 7.1C82.55 4.9 79.51 3.78 76.89 3.78L76.91 3.76Z" fill="#FFFFFF" fill-opacity="0.740000" fill-rule="nonzero"/>
	<path id="Vector" d="M178.83 7.36L114.09 7.36C113.99 7.36 113.89 7.32 113.82 7.26C113.75 7.19 113.71 7.09 113.71 7C113.71 6.9 113.75 6.81 113.82 6.74C113.89 6.67 113.99 6.63 114.09 6.63L178.83 6.63C178.93 6.63 179.02 6.67 179.09 6.74C179.16 6.81 179.2 6.9 179.2 7C179.2 7.09 179.16 7.19 179.09 7.26C179.02 7.32 178.93 7.36 178.83 7.36Z" fill="#FFFFFF" fill-opacity="0.740000" fill-rule="nonzero"/>
	<path id="Vector" d="M182.74 11.19C182.69 11.19 182.64 11.18 182.6 11.16C182.55 11.15 182.51 11.12 182.48 11.08L178.59 7.26C178.52 7.19 178.48 7.09 178.48 7C178.48 6.9 178.52 6.81 178.59 6.74L182.48 2.91C182.55 2.84 182.64 2.81 182.74 2.81C182.84 2.81 182.93 2.84 183 2.91L186.89 6.74C186.96 6.81 187 6.9 187 7C187 7.09 186.96 7.19 186.89 7.26L183 11.08C182.96 11.12 182.93 11.15 182.88 11.16C182.84 11.18 182.78 11.19 182.74 11.19ZM179.37 7L182.74 10.31L186.1 7L182.74 3.68L179.37 7Z" fill="#FFFFFF" fill-opacity="0.740000" fill-rule="nonzero"/>
	<path id="Vector" d="M174.75 7.36C174.7 7.36 174.66 7.35 174.61 7.33C174.57 7.32 174.52 7.29 174.49 7.26C174.42 7.19 174.38 7.09 174.38 7C174.38 6.9 174.42 6.81 174.49 6.74L181.22 0.11C181.25 0.08 181.29 0.05 181.34 0.03C181.38 0.01 181.43 0 181.48 0C181.53 -0.01 181.58 0 181.63 0.02C181.68 0.04 181.71 0.07 181.75 0.1C181.78 0.14 181.81 0.18 181.83 0.22C181.85 0.27 181.86 0.32 181.86 0.37C181.86 0.42 181.85 0.46 181.83 0.51C181.81 0.55 181.78 0.59 181.74 0.63L175.02 7.26C174.98 7.29 174.94 7.32 174.89 7.33C174.85 7.35 174.8 7.36 174.75 7.36Z" fill="#FFFFFF" fill-opacity="0.740000" fill-rule="nonzero"/>
	<path id="Vector" d="M181.48 13.99C181.38 13.99 181.28 13.95 181.21 13.89L174.49 7.26C174.45 7.22 174.42 7.18 174.4 7.14C174.38 7.09 174.37 7.04 174.37 6.99C174.37 6.95 174.38 6.9 174.4 6.85C174.42 6.81 174.44 6.76 174.48 6.73C174.52 6.7 174.56 6.67 174.6 6.65C174.65 6.63 174.7 6.62 174.75 6.62C174.8 6.62 174.85 6.63 174.89 6.65C174.94 6.67 174.98 6.7 175.01 6.74L181.75 13.35C181.78 13.39 181.81 13.43 181.83 13.47C181.85 13.51 181.86 13.56 181.86 13.61C181.86 13.66 181.85 13.71 181.83 13.75C181.81 13.79 181.78 13.83 181.75 13.87C181.71 13.91 181.68 13.94 181.63 13.96C181.58 13.98 181.53 13.99 181.48 13.99Z" fill="#FFFFFF" fill-opacity="0.740000" fill-rule="nonzero"/>
	<path id="Vector" d="M72.88 7.36L8.14 7.36C8.04 7.36 7.95 7.32 7.88 7.26C7.81 7.19 7.77 7.09 7.77 7C7.77 6.9 7.81 6.81 7.88 6.74C7.95 6.67 8.04 6.63 8.14 6.63L72.88 6.63C72.98 6.63 73.07 6.67 73.14 6.74C73.21 6.81 73.25 6.9 73.25 7C73.25 7.09 73.21 7.19 73.14 7.26C73.07 7.32 72.98 7.36 72.88 7.36Z" fill="#FFFFFF" fill-opacity="0.740000" fill-rule="nonzero"/>
	<path id="Vector" d="M4.25 11.19C4.2 11.19 4.16 11.18 4.11 11.16C4.07 11.15 4.03 11.12 3.99 11.08L0.1 7.26C0.03 7.19 0 7.09 0 7C0 6.9 0.03 6.81 0.1 6.74L3.99 2.91C4.06 2.84 4.16 2.81 4.25 2.81C4.35 2.81 4.44 2.84 4.51 2.91L8.4 6.74C8.47 6.81 8.51 6.9 8.51 7C8.51 7.09 8.47 7.19 8.4 7.26L4.51 11.08C4.48 11.12 4.44 11.15 4.39 11.16C4.35 11.18 4.3 11.19 4.25 11.19ZM0.89 7L4.25 10.31L7.62 7L4.25 3.68L0.89 7Z" fill="#FFFFFF" fill-opacity="0.740000" fill-rule="nonzero"/>
	<path id="Vector" d="M12.21 7.36C12.16 7.36 12.12 7.35 12.07 7.33C12.03 7.32 11.99 7.29 11.95 7.26L5.23 0.63C5.16 0.56 5.12 0.47 5.12 0.37C5.12 0.27 5.16 0.18 5.23 0.11C5.26 0.08 5.3 0.05 5.34 0.03C5.39 0.01 5.44 0 5.49 0C5.53 0 5.58 0.01 5.63 0.03C5.67 0.05 5.71 0.08 5.75 0.11L12.48 6.74C12.51 6.77 12.54 6.81 12.56 6.86C12.58 6.9 12.58 6.95 12.58 7C12.58 7.05 12.58 7.09 12.56 7.14C12.54 7.18 12.51 7.22 12.48 7.26C12.44 7.29 12.4 7.32 12.35 7.34C12.31 7.35 12.26 7.36 12.21 7.36Z" fill="#FFFFFF" fill-opacity="0.740000" fill-rule="nonzero"/>
	<path id="Vector" d="M5.49 14C5.39 13.99 5.3 13.95 5.23 13.89C5.16 13.82 5.12 13.73 5.12 13.63C5.12 13.53 5.16 13.44 5.23 13.37L11.95 6.74C12.02 6.67 12.12 6.63 12.21 6.63C12.31 6.63 12.41 6.67 12.48 6.74C12.51 6.77 12.54 6.81 12.56 6.86C12.58 6.9 12.58 6.95 12.58 7C12.58 7.05 12.58 7.09 12.56 7.14C12.54 7.18 12.51 7.22 12.48 7.26L5.75 13.89C5.68 13.95 5.58 13.99 5.49 14Z" fill="#FFFFFF" fill-opacity="0.740000" fill-rule="nonzero"/>
	<path id="Vector" d="M99.67 13.45C99.62 13.45 99.57 13.44 99.53 13.42C99.48 13.4 99.44 13.38 99.41 13.34L96.3 10.29C96.27 10.25 96.24 10.21 96.22 10.17C96.2 10.12 96.19 10.08 96.19 10.03C96.19 9.98 96.19 9.93 96.21 9.88C96.23 9.84 96.26 9.8 96.3 9.76C96.33 9.73 96.37 9.7 96.42 9.68C96.46 9.66 96.51 9.65 96.57 9.65C96.61 9.66 96.66 9.67 96.71 9.69C96.75 9.71 96.8 9.73 96.83 9.77L99.93 12.83C100 12.9 100.04 12.99 100.04 13.08C100.04 13.18 100 13.27 99.93 13.34C99.9 13.38 99.85 13.4 99.81 13.42C99.76 13.44 99.72 13.45 99.67 13.45Z" fill="#FFFFFF" fill-opacity="0.740000" fill-rule="nonzero"/>
	<path id="Vector" d="M90.46 4.38C90.41 4.38 90.36 4.37 90.32 4.35C90.27 4.33 90.23 4.31 90.2 4.27L87.5 1.61C87.44 1.55 87.4 1.45 87.4 1.36C87.4 1.26 87.44 1.17 87.51 1.11C87.58 1.04 87.67 1 87.76 1C87.86 1 87.96 1.03 88.02 1.1L90.72 3.76C90.76 3.79 90.78 3.83 90.8 3.87C90.82 3.92 90.83 3.97 90.83 4.01C90.83 4.06 90.82 4.11 90.8 4.15C90.78 4.2 90.76 4.24 90.72 4.27C90.69 4.31 90.65 4.33 90.6 4.35C90.56 4.37 90.51 4.38 90.46 4.38Z" fill="#FFFFFF" fill-opacity="0.740000" fill-rule="nonzero"/>
	<path id="Vector" d="M87.3 13.45C87.25 13.45 87.2 13.44 87.16 13.42C87.11 13.4 87.07 13.38 87.04 13.34C86.97 13.27 86.93 13.18 86.93 13.09C86.93 12.99 86.97 12.9 87.04 12.83L90.14 9.77C90.21 9.7 90.3 9.66 90.4 9.66C90.5 9.66 90.59 9.7 90.66 9.77C90.7 9.8 90.73 9.84 90.75 9.89C90.76 9.93 90.77 9.98 90.77 10.03C90.77 10.08 90.76 10.12 90.75 10.17C90.73 10.21 90.7 10.25 90.66 10.29L87.56 13.35C87.53 13.39 87.48 13.41 87.44 13.43C87.39 13.44 87.35 13.45 87.3 13.45Z" fill="#FFFFFF" fill-opacity="0.740000" fill-rule="nonzero"/>
	<path id="Vector" d="M96.51 4.38C96.46 4.38 96.41 4.37 96.36 4.35C96.32 4.33 96.28 4.31 96.25 4.27C96.17 4.2 96.14 4.11 96.14 4.01C96.14 3.92 96.17 3.82 96.25 3.76L98.94 1.1C99.01 1.03 99.1 1 99.2 1C99.3 1 99.39 1.04 99.46 1.11C99.52 1.17 99.56 1.26 99.57 1.36C99.57 1.45 99.53 1.55 99.46 1.61L96.77 4.27C96.73 4.31 96.69 4.33 96.65 4.35C96.6 4.37 96.55 4.38 96.51 4.38Z" fill="#FFFFFF" fill-opacity="0.740000" fill-rule="nonzero"/>
</svg>
