<svg width="54.250000" height="54.250000" viewBox="0 0 54.25 54.25" fill="none" xmlns="http://www.w3.org/2000/svg" xmlns:xlink="http://www.w3.org/1999/xlink">
	<desc>
			Created with Pixso.
	</desc>
	<defs/>
	<path id="Vector" d="M53.37 0L0.87 0C0.39 0 0 0.39 0 0.87L0 39.37C0 39.85 0.39 40.25 0.87 40.25L11.21 40.25L9.63 49.73C9.58 50.05 9.71 50.38 9.98 50.57C10.24 50.77 10.59 50.8 10.89 50.65L17.5 47.35L24.1 50.65C24.23 50.71 24.36 50.75 24.5 50.75C24.68 50.75 24.86 50.69 25.01 50.57C25.28 50.38 25.41 50.05 25.36 49.73L23.78 40.25L42 40.25L42 45.5L39.37 45.5C38.89 45.5 38.5 45.89 38.5 46.37L38.5 49L37.62 49C37.14 49 36.75 49.39 36.75 49.87L36.75 53.37C36.75 53.85 37.14 54.25 37.62 54.25L51.62 54.25C52.1 54.25 52.5 53.85 52.5 53.37L52.5 49.87C52.5 49.39 52.1 49 51.62 49L50.75 49L50.75 46.37C50.75 45.89 50.35 45.5 49.87 45.5L47.25 45.5L47.25 40.25L53.37 40.25C53.85 40.25 54.25 39.85 54.25 39.37L54.25 0.87C54.25 0.39 53.85 0 53.37 0ZM9.24 30.33C8.96 31.12 8.81 31.94 8.76 32.78C7.7 32.17 7 31.02 7 29.75L7 10.5C7 8.56 8.57 7 10.5 7L43.75 7C45.67 7 47.25 8.56 47.25 10.5L47.25 29.75C47.25 30.37 47.08 30.96 46.76 31.5L41.12 31.5C40.64 31.5 40.25 31.89 40.25 32.37L40.25 33.25L26.25 33.25C26.25 28.42 22.32 24.5 17.5 24.5C13.79 24.5 10.48 26.84 9.24 30.33ZM46.37 35L42.87 35L42 35L42 33.25L47.25 33.25L47.25 35L46.37 35ZM10.89 30.91C11.88 28.12 14.53 26.25 17.5 26.25C21.35 26.25 24.5 29.39 24.5 33.25C24.5 37.1 21.35 40.25 17.5 40.25C13.64 40.25 10.5 37.1 10.5 33.25C10.5 32.44 10.63 31.66 10.89 30.91ZM17.89 45.59C17.64 45.46 17.35 45.46 17.1 45.59L11.64 48.32L12.91 40.68C14.25 41.51 15.82 42 17.5 42C19.17 42 20.74 41.51 22.08 40.69L23.35 48.32L17.89 45.59ZM24.48 38.5C25.25 37.48 25.8 36.29 26.07 35L40.25 35L40.25 35.87C40.25 36.35 40.64 36.75 41.12 36.75L42 36.75L42 38.5L24.48 38.5ZM50.75 52.5L38.5 52.5L38.5 50.75L39.37 50.75L49.87 50.75L50.75 50.75L50.75 52.5ZM49 49L40.25 49L40.25 47.25L42.87 47.25L46.37 47.25L49 47.25L49 49ZM43.75 45.5L43.75 36.75L45.5 36.75L45.5 45.5L43.75 45.5ZM52.5 38.5L47.25 38.5L47.25 36.75L48.12 36.75C48.6 36.75 49 36.35 49 35.87L49 32.37C49 32.08 48.84 31.83 48.62 31.67C48.86 31.06 49 30.42 49 29.75L49 10.5C49 7.6 46.64 5.25 43.75 5.25L10.5 5.25C7.6 5.25 5.25 7.6 5.25 10.5L5.25 29.75C5.25 32.03 6.75 34.03 8.88 34.72C9.12 36.12 9.69 37.41 10.51 38.5L1.75 38.5L1.75 1.75L52.5 1.75L52.5 38.5Z" fill="#4C4C4C" fill-opacity="1.000000" fill-rule="nonzero"/>
</svg>
