<svg width="49.976562" height="55.990112" viewBox="0 0 49.9766 55.9901" fill="none" xmlns="http://www.w3.org/2000/svg" xmlns:xlink="http://www.w3.org/1999/xlink">
	<desc>
			Created with Pixso.
	</desc>
	<defs/>
	<path id="water treatment" d="M43.1 16.11L27.31 0.23C27.15 0.08 26.94 0 26.72 0C26.5 0 26.28 0.08 26.12 0.23L10.33 16.11C6.9 19.6 4.64 24.09 3.88 28.94C3.12 33.8 3.89 38.77 6.1 43.15C4.62 44.44 2.74 45.14 0.79 45.14C0.58 45.16 0.37 45.25 0.23 45.41C0.08 45.57 0 45.77 0 45.99C0 46.21 0.08 46.42 0.23 46.57C0.37 46.73 0.58 46.83 0.79 46.84C2.95 46.84 5.02 47.7 6.55 49.24C8.07 50.77 8.93 52.86 8.93 55.03C8.94 55.24 9.04 55.45 9.19 55.6C9.35 55.75 9.56 55.83 9.77 55.83C9.99 55.83 10.19 55.75 10.35 55.6C10.51 55.45 10.6 55.24 10.62 55.03C10.62 53.42 11.09 51.84 11.98 50.5C35.1 68.67 63.19 37.65 43.1 16.11ZM9.77 51.02C8.78 48.78 7 46.99 4.77 45.99C7 44.99 8.78 43.2 9.77 40.96C10.76 43.2 12.55 44.99 14.78 45.99C12.55 46.99 10.76 48.78 9.77 51.02ZM41.91 47.87C38.12 51.67 33.07 53.9 27.73 54.15C22.4 54.39 17.16 52.63 13.05 49.2C14.57 47.69 16.62 46.84 18.75 46.84C18.98 46.84 19.19 46.75 19.35 46.59C19.51 46.43 19.6 46.21 19.6 45.99C19.6 45.77 19.51 45.55 19.35 45.39C19.19 45.23 18.98 45.14 18.75 45.14C16.6 45.14 14.53 44.28 13 42.74C11.48 41.21 10.62 39.13 10.62 36.96C10.6 36.74 10.51 36.54 10.35 36.39C10.19 36.24 9.99 36.15 9.77 36.15C9.56 36.15 9.35 36.24 9.19 36.39C9.04 36.54 8.94 36.74 8.93 36.96C8.93 38.71 8.37 40.42 7.32 41.82C5.43 37.8 4.82 33.28 5.57 28.89C6.32 24.51 8.4 20.46 11.52 17.3L26.72 2.02L41.91 17.3C45.94 21.36 48.19 26.86 48.19 32.59C48.19 38.32 45.94 43.82 41.91 47.87ZM43.84 32.59C43.83 37.15 42.03 41.53 38.82 44.76C35.61 47.99 31.26 49.8 26.72 49.81C26.5 49.8 26.3 49.7 26.15 49.55C26 49.39 25.92 49.18 25.92 48.96C25.92 48.75 26 48.54 26.15 48.38C26.3 48.22 26.5 48.13 26.72 48.12C30.81 48.11 34.73 46.47 37.63 43.56C40.52 40.65 42.15 36.71 42.15 32.59C42.15 32.36 42.24 32.15 42.4 31.99C42.56 31.83 42.77 31.74 43 31.74C43.22 31.74 43.43 31.83 43.59 31.99C43.75 32.15 43.84 32.36 43.84 32.59ZM30.26 33.58C30.27 33.79 30.36 34 30.52 34.15C30.68 34.3 30.89 34.38 31.1 34.38C31.32 34.38 31.52 34.3 31.68 34.15C31.83 34 31.93 33.79 31.94 33.58C31.94 31.41 32.8 29.33 34.33 27.79C35.85 26.26 37.92 25.39 40.08 25.39C40.3 25.38 40.5 25.28 40.65 25.13C40.8 24.97 40.88 24.76 40.88 24.54C40.88 24.33 40.8 24.12 40.65 23.96C40.5 23.8 40.3 23.71 40.08 23.7C37.92 23.69 35.85 22.83 34.33 21.3C32.8 19.76 31.95 17.68 31.94 15.51C31.94 15.28 31.85 15.07 31.7 14.91C31.54 14.75 31.32 14.66 31.1 14.66C30.88 14.66 30.66 14.75 30.51 14.91C30.35 15.07 30.26 15.28 30.26 15.51C30.25 17.68 29.39 19.76 27.87 21.29C26.34 22.82 24.28 23.68 22.12 23.69C21.9 23.69 21.68 23.78 21.52 23.93C21.37 24.09 21.28 24.31 21.28 24.53C21.28 24.76 21.37 24.97 21.52 25.13C21.68 25.29 21.9 25.38 22.12 25.38C24.28 25.38 26.35 26.25 27.87 27.78C29.4 29.32 30.26 31.4 30.26 33.57L30.26 33.58ZM31.1 19.51C32.09 21.75 33.87 23.55 36.1 24.54C33.87 25.54 32.09 27.34 31.1 29.58C30.11 27.33 28.33 25.54 26.1 24.54C28.32 23.54 30.1 21.75 31.1 19.51Z" fill="#4C4C4C" fill-opacity="1.000000" fill-rule="nonzero"/>
</svg>
